<?xml version="1.0" standalone="no"?>
<!DOCTYPE svg PUBLIC "-//W3C//DTD SVG 20010904//EN"
 "http://www.w3.org/TR/2001/REC-SVG-20010904/DTD/svg10.dtd">
<svg version="1.0" xmlns="http://www.w3.org/2000/svg"
 width="541.000000pt" height="200.000000pt" viewBox="0 0 541.000000 200.000000"
 preserveAspectRatio="xMidYMid meet">

<g transform="translate(0.000000,200.000000) scale(0.100000,-0.100000)"
fill="#000000" stroke="none">
<path d="M1402 1772 c2 -8 21 -20 42 -27 22 -8 51 -25 65 -40 l26 -25 3 -435
c3 -488 5 -474 -69 -521 -22 -14 -39 -30 -37 -36 3 -7 94 -11 283 -12 316 -1
338 3 430 72 36 27 60 56 85 105 31 61 34 76 34 150 0 65 -5 92 -23 130 -30
63 -92 114 -163 135 -32 9 -57 20 -55 23 1 4 22 22 47 40 55 41 100 124 100
183 0 122 -70 212 -194 253 -69 22 -578 26 -574 5z m455 -47 c128 -38 203
-130 203 -250 0 -75 -24 -118 -85 -149 -32 -17 -63 -21 -166 -24 -122 -4 -128
-3 -139 17 -8 15 -10 79 -8 202 3 176 4 181 27 200 29 23 97 25 168 4z m118
-501 c114 -40 183 -157 172 -291 -7 -91 -44 -148 -122 -188 -55 -28 -65 -30
-174 -30 -188 0 -191 4 -191 299 0 256 -10 241 150 233 71 -3 134 -12 165 -23z"/>
<path d="M3202 1770 c2 -8 17 -18 35 -23 17 -5 44 -23 60 -39 l28 -29 3 -351
3 -350 -69 4 c-64 3 -71 6 -120 48 -28 25 -61 47 -72 50 -32 8 -210 0 -210
-10 0 -5 16 -14 35 -20 19 -6 40 -20 45 -30 15 -29 12 -123 -5 -146 -14 -18
-23 -11 -169 137 -151 154 -216 239 -216 287 0 13 12 35 26 49 50 50 146 14
190 -69 23 -44 34 -33 34 35 l0 62 -65 13 c-85 16 -117 15 -165 -4 -74 -30
-103 -125 -61 -203 l18 -34 -49 -25 c-70 -35 -101 -86 -106 -173 -5 -88 17
-155 68 -208 50 -51 83 -68 156 -80 100 -16 193 7 270 65 17 13 34 24 38 24 4
0 34 -19 67 -42 57 -41 64 -43 130 -43 51 0 72 4 79 15 8 12 2 16 -29 21 -41
5 -91 35 -155 91 l-39 34 17 31 c9 18 20 62 25 98 10 68 20 89 53 106 14 8 26
2 60 -29 58 -52 72 -59 152 -67 l68 -8 -4 -82 c-5 -92 -25 -133 -78 -155 -16
-7 -30 -20 -30 -29 0 -14 31 -16 323 -16 277 1 326 3 352 17 57 31 105 97 119
165 11 49 -11 50 -51 4 -66 -77 -198 -121 -365 -121 -92 0 -101 2 -123 25
l-25 24 0 438 c0 333 3 444 13 463 7 14 32 35 55 48 75 42 59 47 -138 47 -154
0 -180 -2 -178 -15z m-594 -722 c31 -35 103 -109 160 -165 l104 -101 -26 -17
c-73 -48 -155 -56 -241 -24 -152 57 -226 240 -134 335 49 51 72 46 137 -28z"/>
<path d="M1440 500 c0 -7 435 -10 1285 -10 850 0 1285 3 1285 10 0 7 -435 10
-1285 10 -850 0 -1285 -3 -1285 -10z"/>
</g>
</svg>
